<svg width="226.75994873046875px" height="355.0400146484375px" xmlns="http://www.w3.org/2000/svg" viewBox="136.62002563476562 -102.52000732421874 226.75994873046875 355.0400146484375" style="background: none;" preserveAspectRatio="xMidYMid"><defs><filter id="editing-extrude-glow"><feFlood flood-color="#0e0e0e" result="flood-1"></feFlood><feMorphology operator="erode" radius="1" in="SourceAlpha" result="erode"></feMorphology><feComposite operator="in" in="flood-1" in2="erode" result="comp1"></feComposite><feConvolveMatrix order="3,3" divisor="1" in="comp1" result="convolve" kernelMatrix="0 0 0 1 1 1 0 0 0"></feConvolveMatrix><feOffset dx="-3" dy="0" in="convolve" result="extrude"></feOffset><feComposite operator="in" in="flood-1" in2="extrude" result="comp-extrude"></feComposite><feFlood flood-color="none" result="flood-2"></feFlood><feComposite operator="in" in="flood-2" in2="SourceAlpha" result="comp2"></feComposite><feMorphology operator="dilate" radius="1" in="comp2" result="dilate"></feMorphology><feOffset dx="-4.5" dy="0" in="dilate" result="offset"></feOffset><feGaussianBlur in="offset" stdDeviation="5.8" result="blur"></feGaussianBlur><feComponentTransfer in="blur" result="shadow"><feFuncA type="linear" slope="0.8" intercept="-0.2"></feFuncA></feComponentTransfer><feMerge><feMergeNode in="shadow"></feMergeNode><feMergeNode in="comp-extrude"></feMergeNode><feMergeNode in="SourceGraphic"></feMergeNode></feMerge></filter></defs><g filter="url(#editing-extrude-glow)"><g transform="translate(173.98501110076904, 146.75000381469727)"><path d="M37.56 1.31L37.56 1.31Q27.88 1.31 20.01-2.46L20.01-2.46L20.01-2.46Q12.14-6.23 7.63-13.53L7.63-13.53L7.63-13.53Q3.12-20.83 3.12-31.16L3.12-31.16L3.12-66.42L30.83-66.42L30.83-32.80L30.83-32.80Q30.83-29.03 32.39-26.81L32.39-26.81L32.39-26.81Q33.95-24.60 37.23-24.60L37.23-24.60L37.23-24.60Q40.34-24.60 41.90-26.65L41.90-26.65L41.90-26.65Q43.46-28.70 43.46-32.47L43.46-32.47L43.46-140.88L71.83-140.88L71.83-35.26L71.83-35.26Q71.83-24.27 67.49-15.99L67.49-15.99L67.49-15.99Q63.14-7.71 55.35-3.20L55.35-3.20L55.35-3.20Q47.56 1.31 37.56 1.31L37.56 1.31ZM116.11 1.31L116.11 1.31Q96.92 1.31 88.40-8.20L88.40-8.20L88.40-8.20Q79.87-17.71 79.87-38.87L79.87-38.87L79.87-52.64L107.58-52.64L107.58-35.10L107.58-35.10Q107.58-24.60 114.31-24.60L114.31-24.60L114.31-24.60Q118.08-24.60 119.56-26.81L119.56-26.81L119.56-26.81Q121.03-29.03 121.03-34.28L121.03-34.28L121.03-34.28Q121.03-41.16 119.39-45.67L119.39-45.67L119.39-45.67Q117.75-50.18 115.21-53.22L115.21-53.22L115.21-53.22Q112.67-56.25 106.11-62.65L106.11-62.65L93.97-74.78L93.97-74.78Q79.87-88.56 79.87-105.29L79.87-105.29L79.87-105.29Q79.87-123.33 88.15-132.76L88.15-132.76L88.15-132.76Q96.43-142.19 112.34-142.19L112.34-142.19L112.34-142.19Q131.36-142.19 139.73-132.10L139.73-132.10L139.73-132.10Q148.09-122.02 148.09-100.53L148.09-100.53L119.39-100.53L119.23-110.21L119.23-110.21Q119.23-113.00 117.67-114.64L117.67-114.64L117.67-114.64Q116.11-116.28 113.32-116.28L113.32-116.28L113.32-116.28Q110.04-116.28 108.40-114.47L108.40-114.47L108.40-114.47Q106.76-112.67 106.76-109.55L106.76-109.55L106.76-109.55Q106.76-102.66 114.64-95.28L114.64-95.28L131.04-79.54L131.04-79.54Q136.78-73.96 140.55-68.96L140.55-68.96L140.55-68.96Q144.32-63.96 146.62-57.15L146.62-57.15L146.62-57.15Q148.91-50.35 148.91-41L148.91-41L148.91-41Q148.91-20.17 141.29-9.43L141.29-9.43L141.29-9.43Q133.66 1.31 116.11 1.31L116.11 1.31Z" fill="#98716a"></path></g></g><style>text {
  font-size: 64px;
  font-family: Arial Black;
  dominant-baseline: central;
  text-anchor: middle;
}</style></svg>